<mxfile host="app.diagrams.net" modified="2023-10-16T13:59:36.788Z" agent="Mozilla/5.0 (Windows NT 10.0; Win64; x64) AppleWebKit/537.36 (KHTML, like Gecko) Chrome/117.0.0.0 Safari/537.36" etag="X6SkPOkrnnryLClvrdbs" version="22.0.4" type="github">
  <diagram name="第 1 页" id="1LlGjjFq-itmGc15cI-b">
    <mxGraphModel dx="2730" dy="2293" grid="1" gridSize="10" guides="1" tooltips="1" connect="1" arrows="1" fold="1" page="1" pageScale="1" pageWidth="980" pageHeight="1390" math="0" shadow="0">
      <root>
        <mxCell id="0" />
        <mxCell id="1" parent="0" />
        <mxCell id="kfPwDd3YkVPb86NPEOGR-1" value="" style="rounded=1;whiteSpace=wrap;html=1;dashed=1;strokeWidth=3;" parent="1" vertex="1">
          <mxGeometry x="-928" y="-1075" width="460" height="150" as="geometry" />
        </mxCell>
        <mxCell id="kfPwDd3YkVPb86NPEOGR-2" value="&lt;b style=&quot;font-size: 28px;&quot;&gt;US&amp;nbsp; may&amp;nbsp; &lt;i&gt;&lt;font style=&quot;font-size: 28px;&quot; color=&quot;#3399ff&quot;&gt;drop&lt;/font&gt;&lt;/i&gt;&amp;nbsp; tariffs&amp;nbsp; on&amp;nbsp; China&lt;/b&gt;" style="text;html=1;strokeColor=none;fillColor=none;align=center;verticalAlign=middle;whiteSpace=wrap;rounded=0;fontSize=29;" parent="1" vertex="1">
          <mxGeometry x="-918" y="-965" width="440" height="30" as="geometry" />
        </mxCell>
        <mxCell id="kfPwDd3YkVPb86NPEOGR-3" value="" style="endArrow=classic;html=1;rounded=1;fontSize=29;entryX=0.07;entryY=-0.013;entryDx=0;entryDy=0;entryPerimeter=0;strokeWidth=3;" parent="1" edge="1">
          <mxGeometry width="50" height="50" relative="1" as="geometry">
            <mxPoint x="-753" y="-965" as="sourcePoint" />
            <mxPoint x="-892.1999999999999" y="-965.3899999999999" as="targetPoint" />
            <Array as="points">
              <mxPoint x="-753" y="-1055" />
              <mxPoint x="-892" y="-1055" />
            </Array>
          </mxGeometry>
        </mxCell>
        <mxCell id="kfPwDd3YkVPb86NPEOGR-4" value="" style="endArrow=classic;html=1;rounded=1;fontSize=29;entryX=0.199;entryY=0.067;entryDx=0;entryDy=0;entryPerimeter=0;strokeWidth=3;" parent="1" edge="1">
          <mxGeometry width="50" height="50" relative="1" as="geometry">
            <mxPoint x="-763" y="-965" as="sourcePoint" />
            <mxPoint x="-833.44" y="-962.99" as="targetPoint" />
            <Array as="points">
              <mxPoint x="-763" y="-1035" />
              <mxPoint x="-833" y="-1035" />
            </Array>
          </mxGeometry>
        </mxCell>
        <mxCell id="kfPwDd3YkVPb86NPEOGR-5" value="" style="endArrow=classic;html=1;rounded=1;fontSize=29;entryX=0.72;entryY=0.04;entryDx=0;entryDy=0;entryPerimeter=0;strokeWidth=3;" parent="1" target="kfPwDd3YkVPb86NPEOGR-2" edge="1">
          <mxGeometry width="50" height="50" relative="1" as="geometry">
            <mxPoint x="-742" y="-965" as="sourcePoint" />
            <mxPoint x="-608" y="-965" as="targetPoint" />
            <Array as="points">
              <mxPoint x="-742" y="-1055" />
              <mxPoint x="-601" y="-1055" />
            </Array>
          </mxGeometry>
        </mxCell>
        <mxCell id="kfPwDd3YkVPb86NPEOGR-6" value="" style="endArrow=classic;html=1;rounded=1;fontSize=29;entryX=0.579;entryY=0.016;entryDx=0;entryDy=0;entryPerimeter=0;strokeWidth=3;" parent="1" edge="1">
          <mxGeometry width="50" height="50" relative="1" as="geometry">
            <mxPoint x="-732" y="-965" as="sourcePoint" />
            <mxPoint x="-667.24" y="-964.52" as="targetPoint" />
            <Array as="points">
              <mxPoint x="-732" y="-1035" />
              <mxPoint x="-668" y="-1035" />
            </Array>
          </mxGeometry>
        </mxCell>
        <mxCell id="kfPwDd3YkVPb86NPEOGR-7" value="" style="endArrow=classic;html=1;rounded=1;fontSize=29;entryX=0.89;entryY=-0.022;entryDx=0;entryDy=0;entryPerimeter=0;strokeWidth=3;" parent="1" edge="1">
          <mxGeometry width="50" height="50" relative="1" as="geometry">
            <mxPoint x="-590" y="-966" as="sourcePoint" />
            <mxPoint x="-524.4000000000001" y="-965.6599999999999" as="targetPoint" />
            <Array as="points">
              <mxPoint x="-590" y="-1055" />
              <mxPoint x="-524" y="-1055" />
            </Array>
          </mxGeometry>
        </mxCell>
        <mxCell id="kfPwDd3YkVPb86NPEOGR-8" value="" style="shape=flexArrow;endArrow=classic;html=1;rounded=1;fontSize=29;fontColor=#3399FF;exitX=1;exitY=0.5;exitDx=0;exitDy=0;" parent="1" edge="1">
          <mxGeometry width="50" height="50" relative="1" as="geometry">
            <mxPoint x="-633" y="-830.4200000000001" as="sourcePoint" />
            <mxPoint x="-587" y="-831" as="targetPoint" />
          </mxGeometry>
        </mxCell>
        <mxCell id="kfPwDd3YkVPb86NPEOGR-9" value="" style="rounded=1;whiteSpace=wrap;html=1;fontSize=29;fontColor=#3399FF;strokeWidth=3;strokeColor=#3399FF;" parent="1" vertex="1">
          <mxGeometry x="-400.5" y="-894.5" width="148" height="135" as="geometry" />
        </mxCell>
        <mxCell id="kfPwDd3YkVPb86NPEOGR-10" value="" style="rounded=1;whiteSpace=wrap;html=1;fontSize=28;fontColor=#000000;strokeWidth=3;" parent="1" vertex="1">
          <mxGeometry x="-858" y="-727" width="320" height="100" as="geometry" />
        </mxCell>
        <mxCell id="kfPwDd3YkVPb86NPEOGR-11" value="&lt;font face=&quot;Times New Roman&quot; size=&quot;1&quot; style=&quot;&quot; color=&quot;#000000&quot;&gt;&lt;b style=&quot;font-size: 25px;&quot;&gt;Dependency Parser&lt;/b&gt;&lt;/font&gt;" style="text;strokeColor=none;fillColor=none;align=center;verticalAlign=middle;spacingLeft=4;spacingRight=4;overflow=hidden;points=[[0,0.5],[1,0.5]];portConstraint=eastwest;rotatable=0;whiteSpace=wrap;html=1;fontSize=29;fontColor=#3399FF;" parent="1" vertex="1">
          <mxGeometry x="-808" y="-727" width="228" height="100" as="geometry" />
        </mxCell>
        <mxCell id="kfPwDd3YkVPb86NPEOGR-13" value="&lt;span style=&quot;font-size: 28px;&quot;&gt;&lt;b&gt;US&amp;nbsp; may&amp;nbsp; &lt;i&gt;&lt;font style=&quot;font-size: 28px;&quot; color=&quot;#3399ff&quot;&gt;drop&lt;/font&gt;&amp;nbsp; &lt;/i&gt;tariffs&amp;nbsp; on&amp;nbsp; China&lt;/b&gt;&lt;/span&gt;" style="text;html=1;strokeColor=none;fillColor=none;align=center;verticalAlign=middle;whiteSpace=wrap;rounded=0;fontSize=29;" parent="1" vertex="1">
          <mxGeometry x="-921" y="-523" width="440" height="30" as="geometry" />
        </mxCell>
        <mxCell id="kfPwDd3YkVPb86NPEOGR-14" value="" style="rounded=0;whiteSpace=wrap;html=1;dashed=1;strokeWidth=3;" parent="1" vertex="1">
          <mxGeometry x="-902" y="-583" width="402" height="60" as="geometry" />
        </mxCell>
        <mxCell id="kfPwDd3YkVPb86NPEOGR-15" value="" style="rounded=0;whiteSpace=wrap;html=1;strokeWidth=2;rotation=90;" parent="1" vertex="1">
          <mxGeometry x="-895" y="-568" width="50" height="30" as="geometry" />
        </mxCell>
        <mxCell id="kfPwDd3YkVPb86NPEOGR-16" value="" style="ellipse;whiteSpace=wrap;html=1;aspect=fixed;strokeWidth=2;fillColor=#000000;" parent="1" vertex="1">
          <mxGeometry x="-880" y="-575" width="20" height="20" as="geometry" />
        </mxCell>
        <mxCell id="kfPwDd3YkVPb86NPEOGR-17" value="" style="ellipse;whiteSpace=wrap;html=1;aspect=fixed;strokeWidth=2;fillColor=#000000;" parent="1" vertex="1">
          <mxGeometry x="-880" y="-550" width="20" height="20" as="geometry" />
        </mxCell>
        <mxCell id="kfPwDd3YkVPb86NPEOGR-18" value="" style="rounded=0;whiteSpace=wrap;html=1;strokeWidth=2;rotation=90;" parent="1" vertex="1">
          <mxGeometry x="-836" y="-568" width="50" height="30" as="geometry" />
        </mxCell>
        <mxCell id="kfPwDd3YkVPb86NPEOGR-19" value="" style="ellipse;whiteSpace=wrap;html=1;aspect=fixed;strokeWidth=2;fillColor=#000000;" parent="1" vertex="1">
          <mxGeometry x="-821" y="-575" width="20" height="20" as="geometry" />
        </mxCell>
        <mxCell id="kfPwDd3YkVPb86NPEOGR-20" value="" style="ellipse;whiteSpace=wrap;html=1;aspect=fixed;strokeWidth=2;fillColor=#000000;" parent="1" vertex="1">
          <mxGeometry x="-821" y="-550" width="20" height="20" as="geometry" />
        </mxCell>
        <mxCell id="kfPwDd3YkVPb86NPEOGR-21" value="" style="rounded=0;whiteSpace=wrap;html=1;strokeWidth=2;rotation=90;" parent="1" vertex="1">
          <mxGeometry x="-696" y="-568" width="50" height="30" as="geometry" />
        </mxCell>
        <mxCell id="kfPwDd3YkVPb86NPEOGR-22" value="" style="ellipse;whiteSpace=wrap;html=1;aspect=fixed;strokeWidth=2;fillColor=#000000;" parent="1" vertex="1">
          <mxGeometry x="-681" y="-575" width="20" height="20" as="geometry" />
        </mxCell>
        <mxCell id="kfPwDd3YkVPb86NPEOGR-23" value="" style="ellipse;whiteSpace=wrap;html=1;aspect=fixed;strokeWidth=2;fillColor=#000000;" parent="1" vertex="1">
          <mxGeometry x="-681" y="-550" width="20" height="20" as="geometry" />
        </mxCell>
        <mxCell id="kfPwDd3YkVPb86NPEOGR-24" value="" style="rounded=0;whiteSpace=wrap;html=1;strokeWidth=2;rotation=90;" parent="1" vertex="1">
          <mxGeometry x="-556" y="-568.5" width="50" height="30" as="geometry" />
        </mxCell>
        <mxCell id="kfPwDd3YkVPb86NPEOGR-25" value="" style="ellipse;whiteSpace=wrap;html=1;aspect=fixed;strokeWidth=2;fillColor=#000000;" parent="1" vertex="1">
          <mxGeometry x="-541" y="-575.5" width="20" height="20" as="geometry" />
        </mxCell>
        <mxCell id="kfPwDd3YkVPb86NPEOGR-26" value="" style="ellipse;whiteSpace=wrap;html=1;aspect=fixed;strokeWidth=2;fillColor=#000000;" parent="1" vertex="1">
          <mxGeometry x="-541" y="-550.5" width="20" height="20" as="geometry" />
        </mxCell>
        <mxCell id="kfPwDd3YkVPb86NPEOGR-27" value="" style="rounded=0;whiteSpace=wrap;html=1;strokeWidth=2;rotation=90;" parent="1" vertex="1">
          <mxGeometry x="-627" y="-568" width="50" height="30" as="geometry" />
        </mxCell>
        <mxCell id="kfPwDd3YkVPb86NPEOGR-28" value="" style="ellipse;whiteSpace=wrap;html=1;aspect=fixed;strokeWidth=2;fillColor=#000000;" parent="1" vertex="1">
          <mxGeometry x="-612" y="-575" width="20" height="20" as="geometry" />
        </mxCell>
        <mxCell id="kfPwDd3YkVPb86NPEOGR-29" value="" style="ellipse;whiteSpace=wrap;html=1;aspect=fixed;strokeWidth=2;fillColor=#000000;" parent="1" vertex="1">
          <mxGeometry x="-612" y="-550" width="20" height="20" as="geometry" />
        </mxCell>
        <mxCell id="kfPwDd3YkVPb86NPEOGR-30" value="" style="rounded=0;whiteSpace=wrap;html=1;strokeWidth=2;rotation=90;" parent="1" vertex="1">
          <mxGeometry x="-768" y="-568" width="50" height="30" as="geometry" />
        </mxCell>
        <mxCell id="kfPwDd3YkVPb86NPEOGR-31" value="" style="ellipse;whiteSpace=wrap;html=1;aspect=fixed;strokeWidth=2;fillColor=#3399FF;strokeColor=#3399FF;" parent="1" vertex="1">
          <mxGeometry x="-753" y="-575" width="20" height="20" as="geometry" />
        </mxCell>
        <mxCell id="kfPwDd3YkVPb86NPEOGR-32" value="" style="ellipse;whiteSpace=wrap;html=1;aspect=fixed;strokeWidth=2;fillColor=#3399FF;strokeColor=#3399FF;" parent="1" vertex="1">
          <mxGeometry x="-753" y="-550" width="20" height="20" as="geometry" />
        </mxCell>
        <mxCell id="kfPwDd3YkVPb86NPEOGR-33" value="" style="rounded=1;whiteSpace=wrap;html=1;fontSize=29;fontColor=#3399FF;strokeWidth=3;" parent="1" vertex="1">
          <mxGeometry x="-758" y="-882" width="120" height="110" as="geometry" />
        </mxCell>
        <mxCell id="kfPwDd3YkVPb86NPEOGR-34" value="&lt;font face=&quot;Times New Roman&quot; size=&quot;1&quot; style=&quot;&quot; color=&quot;#000000&quot;&gt;&lt;b style=&quot;font-size: 23px;&quot;&gt;Probability Matrix&lt;/b&gt;&lt;/font&gt;" style="text;strokeColor=none;fillColor=none;align=center;verticalAlign=middle;spacingLeft=4;spacingRight=4;overflow=hidden;points=[[0,0.5],[1,0.5]];portConstraint=eastwest;rotatable=0;whiteSpace=wrap;html=1;fontSize=29;fontColor=#3399FF;strokeWidth=4;" parent="1" vertex="1">
          <mxGeometry x="-758" y="-876" width="120" height="92" as="geometry" />
        </mxCell>
        <mxCell id="kfPwDd3YkVPb86NPEOGR-35" value="" style="shape=flexArrow;endArrow=classic;html=1;rounded=1;fontSize=29;fontColor=#3399FF;" parent="1" edge="1">
          <mxGeometry width="50" height="50" relative="1" as="geometry">
            <mxPoint x="-699" y="-887" as="sourcePoint" />
            <mxPoint x="-698.71" y="-923" as="targetPoint" />
          </mxGeometry>
        </mxCell>
        <mxCell id="kfPwDd3YkVPb86NPEOGR-36" value="" style="shape=flexArrow;endArrow=classic;html=1;rounded=1;fontSize=29;fontColor=#3399FF;" parent="1" edge="1">
          <mxGeometry width="50" height="50" relative="1" as="geometry">
            <mxPoint x="-698.71" y="-734" as="sourcePoint" />
            <mxPoint x="-698.4200000000001" y="-770" as="targetPoint" />
          </mxGeometry>
        </mxCell>
        <mxCell id="kfPwDd3YkVPb86NPEOGR-37" value="" style="shape=flexArrow;endArrow=classic;html=1;rounded=1;fontSize=29;fontColor=#3399FF;" parent="1" edge="1">
          <mxGeometry width="50" height="50" relative="1" as="geometry">
            <mxPoint x="-699" y="-887" as="sourcePoint" />
            <mxPoint x="-698.71" y="-923" as="targetPoint" />
          </mxGeometry>
        </mxCell>
        <mxCell id="kfPwDd3YkVPb86NPEOGR-38" value="" style="shape=flexArrow;endArrow=classic;html=1;rounded=1;fontSize=29;fontColor=#3399FF;" parent="1" edge="1">
          <mxGeometry width="50" height="50" relative="1" as="geometry">
            <mxPoint x="-698.71" y="-589" as="sourcePoint" />
            <mxPoint x="-698.4200000000001" y="-625" as="targetPoint" />
          </mxGeometry>
        </mxCell>
        <mxCell id="kfPwDd3YkVPb86NPEOGR-40" value="" style="rounded=1;whiteSpace=wrap;html=1;fontSize=29;fontColor=#3399FF;strokeWidth=3;strokeColor=#3399FF;" parent="1" vertex="1">
          <mxGeometry x="-400.5" y="-632.5" width="148" height="135" as="geometry" />
        </mxCell>
        <mxCell id="kfPwDd3YkVPb86NPEOGR-41" value="" style="rounded=1;whiteSpace=wrap;html=1;fontSize=29;fontColor=#3399FF;strokeWidth=3;" parent="1" vertex="1">
          <mxGeometry x="-583" y="-882.5" width="120" height="110" as="geometry" />
        </mxCell>
        <mxCell id="kfPwDd3YkVPb86NPEOGR-42" value="&lt;font face=&quot;Times New Roman&quot; size=&quot;1&quot; style=&quot;&quot; color=&quot;#000000&quot;&gt;&lt;b style=&quot;font-size: 34px;&quot;&gt;SGN&lt;/b&gt;&lt;/font&gt;" style="text;strokeColor=none;fillColor=none;align=center;verticalAlign=middle;spacingLeft=4;spacingRight=4;overflow=hidden;points=[[0,0.5],[1,0.5]];portConstraint=eastwest;rotatable=0;whiteSpace=wrap;html=1;fontSize=29;fontColor=#3399FF;strokeWidth=4;" parent="1" vertex="1">
          <mxGeometry x="-583" y="-876.5" width="120" height="92" as="geometry" />
        </mxCell>
        <mxCell id="kfPwDd3YkVPb86NPEOGR-43" value="" style="shape=flexArrow;endArrow=classic;html=1;rounded=1;fontSize=29;fontColor=#3399FF;exitX=1;exitY=0.5;exitDx=0;exitDy=0;" parent="1" edge="1">
          <mxGeometry width="50" height="50" relative="1" as="geometry">
            <mxPoint x="-454" y="-827.1300000000001" as="sourcePoint" />
            <mxPoint x="-408" y="-827.71" as="targetPoint" />
          </mxGeometry>
        </mxCell>
        <mxCell id="kfPwDd3YkVPb86NPEOGR-44" value="" style="rounded=0;whiteSpace=wrap;html=1;strokeColor=#000000;strokeWidth=3;fontFamily=Times New Roman;fontSize=34;fillColor=none;gradientColor=default;" parent="1" vertex="1">
          <mxGeometry x="-386.5" y="-726" width="120" height="60" as="geometry" />
        </mxCell>
        <mxCell id="kfPwDd3YkVPb86NPEOGR-46" value="&lt;p style=&quot;line-height: 60%;&quot;&gt;&lt;font style=&quot;font-size: 20px;&quot;&gt;&lt;b&gt;Differential&lt;br&gt;&lt;/b&gt;&lt;/font&gt;&lt;font style=&quot;font-size: 20px;&quot;&gt;&lt;b&gt;Regularizer&lt;/b&gt;&lt;/font&gt;&lt;/p&gt;" style="text;html=1;strokeColor=none;fillColor=none;align=center;verticalAlign=middle;whiteSpace=wrap;rounded=0;fontSize=34;fontFamily=Times New Roman;" parent="1" vertex="1">
          <mxGeometry x="-414.5" y="-722" width="177" height="50" as="geometry" />
        </mxCell>
        <mxCell id="kfPwDd3YkVPb86NPEOGR-47" value="" style="rounded=0;whiteSpace=wrap;html=1;strokeColor=#000000;strokeWidth=3;fontFamily=Times New Roman;fontSize=34;fillColor=none;gradientColor=default;" parent="1" vertex="1">
          <mxGeometry x="-237.5" y="-726" width="120" height="60" as="geometry" />
        </mxCell>
        <mxCell id="kfPwDd3YkVPb86NPEOGR-48" value="&lt;p style=&quot;line-height: 60%;&quot;&gt;&lt;b style=&quot;&quot;&gt;&lt;font style=&quot;font-size: 28px;&quot;&gt;BiAffine&lt;/font&gt;&lt;/b&gt;&lt;/p&gt;" style="text;html=1;strokeColor=none;fillColor=none;align=center;verticalAlign=middle;whiteSpace=wrap;rounded=0;fontSize=34;fontFamily=Times New Roman;" parent="1" vertex="1">
          <mxGeometry x="-266" y="-736" width="177" height="80" as="geometry" />
        </mxCell>
        <mxCell id="kfPwDd3YkVPb86NPEOGR-49" value="&lt;div&gt;&lt;b&gt;dependency&amp;nbsp;&lt;span style=&quot;background-color: initial;&quot;&gt;tree&lt;/span&gt;&lt;/b&gt;&lt;/div&gt;" style="text;html=1;strokeColor=none;fillColor=none;align=center;verticalAlign=middle;whiteSpace=wrap;rounded=0;fontSize=28;fontFamily=Times New Roman;" parent="1" vertex="1">
          <mxGeometry x="-798" y="-1111" width="200" height="30" as="geometry" />
        </mxCell>
        <mxCell id="kfPwDd3YkVPb86NPEOGR-50" value="" style="rounded=0;whiteSpace=wrap;html=1;strokeColor=#3399FF;strokeWidth=3;fontFamily=Times New Roman;fontSize=34;fillColor=none;gradientColor=default;" parent="1" vertex="1">
          <mxGeometry x="-422.75" y="-1045" width="192.5" height="90" as="geometry" />
        </mxCell>
        <mxCell id="kfPwDd3YkVPb86NPEOGR-52" value="&lt;font style=&quot;font-size: 25px;&quot;&gt;&lt;b&gt;Syntax-enriched&lt;br&gt;Embeddings&lt;/b&gt;&lt;/font&gt;" style="text;html=1;strokeColor=none;fillColor=none;align=center;verticalAlign=middle;whiteSpace=wrap;rounded=0;fontSize=28;fontFamily=Times New Roman;" parent="1" vertex="1">
          <mxGeometry x="-441.5" y="-1030" width="230" height="60" as="geometry" />
        </mxCell>
        <mxCell id="kfPwDd3YkVPb86NPEOGR-53" value="&lt;b style=&quot;font-size: 25px;&quot;&gt;Contextual&lt;br&gt;Event&lt;br&gt;Embeddings&lt;/b&gt;" style="text;html=1;strokeColor=none;fillColor=none;align=center;verticalAlign=middle;whiteSpace=wrap;rounded=0;fontSize=23;fontFamily=Times New Roman;" parent="1" vertex="1">
          <mxGeometry x="-406.5" y="-615" width="160" height="100" as="geometry" />
        </mxCell>
        <mxCell id="kfPwDd3YkVPb86NPEOGR-54" value="&lt;b style=&quot;font-size: 25px;&quot;&gt;SK-based&lt;br&gt;Event&lt;br&gt;Embeddings&lt;/b&gt;" style="text;html=1;strokeColor=none;fillColor=none;align=center;verticalAlign=middle;whiteSpace=wrap;rounded=0;fontSize=23;fontFamily=Times New Roman;" parent="1" vertex="1">
          <mxGeometry x="-406" y="-880" width="160" height="100" as="geometry" />
        </mxCell>
        <mxCell id="kfPwDd3YkVPb86NPEOGR-66" style="edgeStyle=orthogonalEdgeStyle;rounded=0;orthogonalLoop=1;jettySize=auto;html=1;exitX=0.5;exitY=1;exitDx=0;exitDy=0;fontFamily=Times New Roman;fontSize=24;" parent="1" source="kfPwDd3YkVPb86NPEOGR-47" target="kfPwDd3YkVPb86NPEOGR-47" edge="1">
          <mxGeometry relative="1" as="geometry" />
        </mxCell>
        <mxCell id="kfPwDd3YkVPb86NPEOGR-67" value="" style="endArrow=classic;html=1;rounded=0;fontFamily=Times New Roman;fontSize=24;entryX=0.5;entryY=1;entryDx=0;entryDy=0;exitX=0.5;exitY=0;exitDx=0;exitDy=0;strokeWidth=3;" parent="1" source="kfPwDd3YkVPb86NPEOGR-40" target="kfPwDd3YkVPb86NPEOGR-44" edge="1">
          <mxGeometry width="50" height="50" relative="1" as="geometry">
            <mxPoint x="-170" y="-460" as="sourcePoint" />
            <mxPoint x="-120" y="-510" as="targetPoint" />
          </mxGeometry>
        </mxCell>
        <mxCell id="kfPwDd3YkVPb86NPEOGR-68" value="" style="endArrow=classic;html=1;rounded=0;fontFamily=Times New Roman;fontSize=24;exitX=0.5;exitY=1;exitDx=0;exitDy=0;entryX=0.5;entryY=0;entryDx=0;entryDy=0;strokeWidth=3;" parent="1" source="kfPwDd3YkVPb86NPEOGR-9" target="kfPwDd3YkVPb86NPEOGR-44" edge="1">
          <mxGeometry width="50" height="50" relative="1" as="geometry">
            <mxPoint x="-190" y="-734.5" as="sourcePoint" />
            <mxPoint x="-140" y="-784.5" as="targetPoint" />
          </mxGeometry>
        </mxCell>
        <mxCell id="kfPwDd3YkVPb86NPEOGR-71" value="" style="endArrow=classic;html=1;rounded=0;fontFamily=Times New Roman;fontSize=24;entryX=0.5;entryY=0;entryDx=0;entryDy=0;strokeWidth=3;" parent="1" target="kfPwDd3YkVPb86NPEOGR-47" edge="1">
          <mxGeometry width="50" height="50" relative="1" as="geometry">
            <mxPoint x="-252" y="-830" as="sourcePoint" />
            <mxPoint x="-202.5" y="-872.5" as="targetPoint" />
            <Array as="points">
              <mxPoint x="-177" y="-830" />
            </Array>
          </mxGeometry>
        </mxCell>
        <mxCell id="kfPwDd3YkVPb86NPEOGR-72" value="" style="endArrow=classic;html=1;rounded=0;fontFamily=Times New Roman;fontSize=24;entryX=0.5;entryY=1;entryDx=0;entryDy=0;strokeWidth=3;" parent="1" target="kfPwDd3YkVPb86NPEOGR-47" edge="1">
          <mxGeometry width="50" height="50" relative="1" as="geometry">
            <mxPoint x="-250" y="-565" as="sourcePoint" />
            <mxPoint x="-202.5" y="-605.5" as="targetPoint" />
            <Array as="points">
              <mxPoint x="-177" y="-565" />
            </Array>
          </mxGeometry>
        </mxCell>
        <mxCell id="kfPwDd3YkVPb86NPEOGR-74" value="" style="endArrow=classic;html=1;rounded=0;strokeWidth=3;fontFamily=Times New Roman;fontSize=24;exitX=1;exitY=0.5;exitDx=0;exitDy=0;entryX=1;entryY=0.5;entryDx=0;entryDy=0;" parent="1" source="kfPwDd3YkVPb86NPEOGR-47" target="kfPwDd3YkVPb86NPEOGR-50" edge="1">
          <mxGeometry width="50" height="50" relative="1" as="geometry">
            <mxPoint x="-250" y="-780" as="sourcePoint" />
            <mxPoint x="-50" y="-820" as="targetPoint" />
            <Array as="points">
              <mxPoint x="-80" y="-696" />
              <mxPoint x="-80" y="-850" />
              <mxPoint x="-80" y="-1000" />
            </Array>
          </mxGeometry>
        </mxCell>
      </root>
    </mxGraphModel>
  </diagram>
</mxfile>
